<mxfile host="app.diagrams.net" modified="2021-08-29T17:44:10.476Z" agent="5.0 (Windows NT 10.0; Win64; x64) AppleWebKit/537.36 (KHTML, like Gecko) Chrome/92.0.4515.159 Safari/537.36" etag="BHEnTlj-axGK9ogPk0-E" version="14.9.6" type="github">
  <diagram id="CkQ4T2YOftX4F2TFWgCS" name="Page-1">
    <mxGraphModel dx="1422" dy="758" grid="1" gridSize="10" guides="1" tooltips="1" connect="1" arrows="1" fold="1" page="1" pageScale="1" pageWidth="850" pageHeight="1100" math="0" shadow="0">
      <root>
        <mxCell id="0" />
        <mxCell id="1" parent="0" />
        <mxCell id="0ZLPQPS5713PxRalosjf-1" value="Post Service" style="rounded=0;whiteSpace=wrap;html=1;fillColor=#fff2cc;strokeColor=#d6b656;fontStyle=1;fontSize=15;shadow=1;sketch=0;" vertex="1" parent="1">
          <mxGeometry x="160" y="160" width="560" height="40" as="geometry" />
        </mxCell>
        <mxCell id="0ZLPQPS5713PxRalosjf-2" value="Path" style="rounded=0;whiteSpace=wrap;html=1;fontSize=15;fillColor=#dae8fc;strokeColor=#6c8ebf;fontStyle=1;shadow=0;" vertex="1" parent="1">
          <mxGeometry x="160" y="210" width="90" height="30" as="geometry" />
        </mxCell>
        <mxCell id="0ZLPQPS5713PxRalosjf-3" value="Method" style="rounded=0;whiteSpace=wrap;html=1;fontSize=15;fillColor=#dae8fc;strokeColor=#6c8ebf;fontStyle=1;shadow=0;" vertex="1" parent="1">
          <mxGeometry x="260" y="210" width="90" height="30" as="geometry" />
        </mxCell>
        <mxCell id="0ZLPQPS5713PxRalosjf-4" value="Body?" style="rounded=0;whiteSpace=wrap;html=1;fontSize=15;fillColor=#dae8fc;strokeColor=#6c8ebf;fontStyle=1;shadow=0;" vertex="1" parent="1">
          <mxGeometry x="360" y="210" width="190" height="30" as="geometry" />
        </mxCell>
        <mxCell id="0ZLPQPS5713PxRalosjf-5" value="Goal" style="rounded=0;whiteSpace=wrap;html=1;fontSize=15;fillColor=#dae8fc;strokeColor=#6c8ebf;fontStyle=1;shadow=0;" vertex="1" parent="1">
          <mxGeometry x="560" y="210" width="160" height="30" as="geometry" />
        </mxCell>
        <mxCell id="0ZLPQPS5713PxRalosjf-6" value="/post" style="rounded=0;whiteSpace=wrap;html=1;fontSize=15;shadow=0;" vertex="1" parent="1">
          <mxGeometry x="160" y="250" width="90" height="40" as="geometry" />
        </mxCell>
        <mxCell id="0ZLPQPS5713PxRalosjf-7" value="/posts" style="rounded=0;whiteSpace=wrap;html=1;fontSize=15;shadow=0;" vertex="1" parent="1">
          <mxGeometry x="160" y="300" width="90" height="40" as="geometry" />
        </mxCell>
        <mxCell id="0ZLPQPS5713PxRalosjf-8" value="POST" style="rounded=0;whiteSpace=wrap;html=1;fontSize=15;shadow=0;" vertex="1" parent="1">
          <mxGeometry x="260" y="250" width="90" height="40" as="geometry" />
        </mxCell>
        <mxCell id="0ZLPQPS5713PxRalosjf-9" value="GET" style="rounded=0;whiteSpace=wrap;html=1;fontSize=15;shadow=0;" vertex="1" parent="1">
          <mxGeometry x="260" y="300" width="90" height="40" as="geometry" />
        </mxCell>
        <mxCell id="0ZLPQPS5713PxRalosjf-10" value="{title: string}" style="rounded=0;whiteSpace=wrap;html=1;fontSize=15;shadow=0;" vertex="1" parent="1">
          <mxGeometry x="360" y="250" width="190" height="40" as="geometry" />
        </mxCell>
        <mxCell id="0ZLPQPS5713PxRalosjf-12" value="-" style="rounded=0;whiteSpace=wrap;html=1;fontSize=15;shadow=0;" vertex="1" parent="1">
          <mxGeometry x="360" y="300" width="190" height="40" as="geometry" />
        </mxCell>
        <mxCell id="0ZLPQPS5713PxRalosjf-13" value="Create new post" style="rounded=0;whiteSpace=wrap;html=1;fontSize=15;shadow=0;" vertex="1" parent="1">
          <mxGeometry x="560" y="250" width="160" height="40" as="geometry" />
        </mxCell>
        <mxCell id="0ZLPQPS5713PxRalosjf-14" value="Retrieve all post" style="rounded=0;whiteSpace=wrap;html=1;fontSize=15;shadow=0;" vertex="1" parent="1">
          <mxGeometry x="560" y="300" width="160" height="40" as="geometry" />
        </mxCell>
      </root>
    </mxGraphModel>
  </diagram>
</mxfile>
